<?xml version="1.0" encoding="UTF-8" standalone="no" ?>
<!DOCTYPE svg PUBLIC "-//W3C//DTD SVG 1.1//EN" "http://www.w3.org/Graphics/SVG/1.1/DTD/svg11.dtd">
<svg xmlns="http://www.w3.org/2000/svg" xmlns:xlink="http://www.w3.org/1999/xlink" version="1.1" width="500" height="500" viewBox="0 0 500 500" xml:space="preserve">
<desc>Created with Fabric.js 5.3.0</desc>
<defs>
</defs>
<g transform="matrix(6.7296385442 -5.0711463807 5.0711463704 6.7296385305 250 308.8236339605)" id="qMnSmoj4l6jf2L1jX42kX"  >
<path style="stroke: rgb(135,136,158); stroke-width: 0; stroke-dasharray: none; stroke-linecap: butt; stroke-dashoffset: 0; stroke-linejoin: miter; stroke-miterlimit: 4; fill: rgb(0,0,0); fill-rule: nonzero; opacity: 0.4;"  transform=" translate(0, 0)" d="M 0 -18.22431 C 10.05982 -18.22431 18.22431 -10.059819999999998 18.22431 0 C 18.22431 10.05982 10.059819999999998 18.22431 0 18.22431 C -10.05982 18.22431 -18.22431 10.059819999999998 -18.22431 0 C -18.22431 -10.05982 -10.059819999999998 -18.22431 0 -18.22431 z" stroke-linecap="round" />
</g>
<g transform="matrix(4.2605153527 0.0743675712 -0.0743675729 4.2605153441 250.1838759226 261.4163994906)" id="xzvzpexr_kmyUrUCJ-tXb"  >
<path style="stroke: rgb(194,151,93); stroke-width: 0; stroke-dasharray: none; stroke-linecap: butt; stroke-dashoffset: 0; stroke-linejoin: miter; stroke-miterlimit: 4; fill: rgb(80,51,6); fill-rule: nonzero; opacity: 1;"  transform=" translate(0, 0)" d="M 0 -32.18646 C 17.76692 -32.18646 32.18646 -17.766929999999995 32.18646 0 C 32.18646 17.76692 17.766929999999995 32.18646 0 32.18646 C -17.76692 32.18646 -32.18646 17.766929999999995 -32.18646 0 C -32.18646 -17.76692 -17.766929999999995 -32.18646 0 -32.18646 z" stroke-linecap="round" />
</g>
<g transform="matrix(4.2605153528 0.0743675712 -0.0743675729 4.2605153442 250.4878442262 264.8905709584)" id="gOBK8z0x5tUEHRDEUnx82"  >
<path style="stroke: rgb(194,151,93); stroke-width: 4; stroke-dasharray: none; stroke-linecap: butt; stroke-dashoffset: 0; stroke-linejoin: miter; stroke-miterlimit: 4; fill: none; fill-rule: nonzero; opacity: 1;"  transform=" translate(0, 0)" d="M 0 -32.18646 C 17.76692 -32.18646 32.18646 -17.766929999999995 32.18646 0 C 32.18646 17.76692 17.766929999999995 32.18646 0 32.18646 C -17.76692 32.18646 -32.18646 17.766929999999995 -32.18646 0 C -32.18646 -17.76692 -17.766929999999995 -32.18646 0 -32.18646 z" stroke-linecap="round" />
</g>
<g transform="matrix(2.4258971784 0.0423441922 -0.055375339 3.1724509777 253.8803316841 70.5350973601)" id="t7N7Yf3aG-kpqyFBf98Dn"  >
<path style="stroke: rgb(234,234,234); stroke-width: 0; stroke-dasharray: none; stroke-linecap: butt; stroke-dashoffset: 0; stroke-linejoin: miter; stroke-miterlimit: 4; fill: rgb(183,177,177); fill-rule: nonzero; opacity: 1;"  transform=" translate(0, 0)" d="M -11.09677 -9.28463 C -11.09677 -10.28545 -10.03577 -11.09677 -8.726959999999998 -11.09677 L 8.726960000000002 -11.09677 L 8.726960000000002 -11.09677 C 10.035770000000001 -11.09677 11.096770000000003 -10.285449999999999 11.096770000000003 -9.28463 L 11.096770000000003 11.09677 L -11.096769999999996 11.09677 z" stroke-linecap="round" />
</g>
<g transform="matrix(2.4258971786 0.0423441922 -0.059816776 3.4269007356 254.1589711103 54.5718555145)" id="OmkXJnq-wBVzPajMsV-vS"  >
<path style="stroke: rgb(234,234,234); stroke-width: 0; stroke-dasharray: none; stroke-linecap: butt; stroke-dashoffset: 0; stroke-linejoin: miter; stroke-miterlimit: 4; fill: rgb(235,234,235); fill-rule: nonzero; opacity: 1;"  transform=" translate(0, 0)" d="M -11.09677 -6.98971 C -11.09677 -7.9162099999999995 -10.03577 -8.66729 -8.726959999999998 -8.66729 L 8.726960000000002 -8.66729 L 8.726960000000002 -8.66729 C 10.035770000000001 -8.66729 11.096770000000003 -7.9162099999999995 11.096770000000003 -6.98971 L 11.096770000000003 8.667300000000001 L 7.926170000000003 8.30835 L 7.926170000000003 8.30835 C 2.4681900000000025 7.690440000000001 -3.0957899999999974 7.708410000000001 -8.545569999999998 8.361550000000001 L -11.096769999999998 8.667300000000001 z" stroke-linecap="round" />
</g>
<g transform="matrix(2.8904742538 -3.4447330691 3.444733075 2.8904742468 246.2289617515 305.7571496983)" id="77yb7DMloaajn5NTz59zf"  >
<path style="stroke: rgb(135,136,158); stroke-width: 0; stroke-dasharray: none; stroke-linecap: butt; stroke-dashoffset: 0; stroke-linejoin: miter; stroke-miterlimit: 4; fill: rgb(194,150,93); fill-rule: nonzero; opacity: 1;"  transform=" translate(0, 0)" d="M -14.39248 -23.33931 C -18.57982 -16.50402 -11.56221 -15.49483 -11.485240000000001 -4.467830000000003 C -11.408280000000001 6.559179999999998 -1.7764100000000003 4.918999999999997 6.503439999999998 9.432529999999996 C 14.783289999999997 13.946059999999996 14.934079999999998 21.651199999999996 22.433679999999995 19.476119999999995 C 29.933279999999996 17.301039999999993 -2.408870000000004 36.558679999999995 -18.093250000000005 12.633259999999995 C -33.777620000000006 -11.292160000000004 -10.205150000000005 -30.174600000000005 -14.392480000000004 -23.33930000000001 z" stroke-linecap="round" />
</g>
<g transform="matrix(4.690010875 0.0818644433 -0.0818644452 4.6900108656 251.805339607 189.4103008983)" id="W_ngVOJXHDwXxeUFwPk-D"  >
<path style="stroke: rgb(234,234,234); stroke-width: 0; stroke-dasharray: none; stroke-linecap: butt; stroke-dashoffset: 0; stroke-linejoin: miter; stroke-miterlimit: 4; fill: rgb(31,16,0); fill-rule: nonzero; opacity: 0.43;"  transform=" translate(0, 0)" d="M 0 -16.09262 C 27.89004 -16.32184 32.18646 16.093839999999997 32.18646 16.093839999999997 L 32.18646 16.093839999999997 L 32.18646 16.093839999999997 C 26.167659999999998 4.224649999999997 14.101859999999999 -3.3656800000000047 0.7969299999999961 -3.652630000000002 C -12.508000000000004 -3.939590000000002 -24.889830000000003 3.1234699999999975 -31.41478 14.722119999999997 L -32.186460000000004 16.093849999999996 C -32.186460000000004 16.093849999999996 -27.890050000000002 -15.863390000000003 -7.105427357601002e-15 -16.09261 z" stroke-linecap="round" />
</g>
<g transform="matrix(4.690010875 0.0818644433 -0.0818644452 4.6900108656 250.4878442262 264.8905709584)" id="GALTgu1WXEpuMSOLjehb5"  >
<path style="stroke: rgb(234,234,234); stroke-width: 6; stroke-dasharray: none; stroke-linecap: butt; stroke-dashoffset: 0; stroke-linejoin: miter; stroke-miterlimit: 4; fill: none; fill-rule: nonzero; opacity: 1;"  transform=" translate(0, 0)" d="M 0 -32.18646 C 17.76692 -32.18646 32.18646 -17.766929999999995 32.18646 0 C 32.18646 17.76692 17.766929999999995 32.18646 0 32.18646 C -17.76692 32.18646 -32.18646 17.766929999999995 -32.18646 0 C -32.18646 -17.76692 -17.766929999999995 -32.18646 0 -32.18646 z" stroke-linecap="round" />
</g>
<g transform="matrix(4.3624003629 0.0761459807 -0.0761459824 4.3624003542 250.4878266755 264.8905724939)" id="c6l5hix4gG-d4hFG_H_iu"  >
<path style="stroke: rgb(213,213,213); stroke-width: 2; stroke-dasharray: none; stroke-linecap: butt; stroke-dashoffset: 0; stroke-linejoin: miter; stroke-miterlimit: 4; fill: none; fill-rule: nonzero; opacity: 1;"  transform=" translate(0, 0)" d="M 0 -32.18646 C 17.76692 -32.18646 32.18646 -17.766929999999995 32.18646 0 C 32.18646 17.76692 17.766929999999995 32.18646 0 32.18646 C -17.76692 32.18646 -32.18646 17.766929999999995 -32.18646 0 C -32.18646 -17.76692 -17.766929999999995 -32.18646 0 -32.18646 z" stroke-linecap="round" />
</g>
<g transform="matrix(1.2118682891 -0.9132082574 0.9132082574 1.2118682891 305.5391200243 334.8752895253)" id="Vn3nUwGKPGywFGBp0QLZY"  >
<path style="stroke: rgb(223,184,98); stroke-width: 0; stroke-dasharray: none; stroke-linecap: butt; stroke-dashoffset: 0; stroke-linejoin: miter; stroke-miterlimit: 4; fill: rgb(80,50,7); fill-rule: nonzero; opacity: 1;"  transform=" translate(0, 0)" d="M 0 -12.34568 C 6.81481 -12.34568 12.34568 -6.81482 12.34568 0 C 12.34568 6.81481 6.81482 12.34568 0 12.34568 C -6.81481 12.34568 -12.34568 6.81482 -12.34568 0 C -12.34568 -6.81481 -6.81482 -12.34568 0 -12.34568 z" stroke-linecap="round" />
</g>
<g transform="matrix(0.6905842009 -0.5203925216 0.5203925216 0.6905842009 287.8240552636 371.1619225753)" id="R2NLvD_D8130Jgbk2J3UU"  >
<path style="stroke: rgb(223,184,98); stroke-width: 0; stroke-dasharray: none; stroke-linecap: butt; stroke-dashoffset: 0; stroke-linejoin: miter; stroke-miterlimit: 4; fill: rgb(80,50,7); fill-rule: nonzero; opacity: 1;"  transform=" translate(0, 0)" d="M 0 -12.34568 C 6.81481 -12.34568 12.34568 -6.81482 12.34568 0 C 12.34568 6.81481 6.81482 12.34568 0 12.34568 C -6.81481 12.34568 -12.34568 6.81482 -12.34568 0 C -12.34568 -6.81481 -6.81482 -12.34568 0 -12.34568 z" stroke-linecap="round" />
</g>
<g transform="matrix(0.690584201 -0.5203925216 0.5203925216 0.690584201 169.213181797 339.5024365689)" id="o8cyAbGg6qrGvTnytuNd6"  >
<path style="stroke: rgb(223,184,98); stroke-width: 0; stroke-dasharray: none; stroke-linecap: butt; stroke-dashoffset: 0; stroke-linejoin: miter; stroke-miterlimit: 4; fill: rgb(80,50,7); fill-rule: nonzero; opacity: 1;"  transform=" translate(0, 0)" d="M 0 -12.34568 C 6.81481 -12.34568 12.34568 -6.81482 12.34568 0 C 12.34568 6.81481 6.81482 12.34568 0 12.34568 C -6.81481 12.34568 -12.34568 6.81482 -12.34568 0 C -12.34568 -6.81481 -6.81482 -12.34568 0 -12.34568 z" stroke-linecap="round" />
</g>
<g transform="matrix(0.476719032 -0.3592335573 0.3592335573 0.476719032 341.8452689009 339.6814371864)" id="qDfItnQEv5tOZ7agoTn_B"  >
<path style="stroke: rgb(223,184,98); stroke-width: 0; stroke-dasharray: none; stroke-linecap: butt; stroke-dashoffset: 0; stroke-linejoin: miter; stroke-miterlimit: 4; fill: rgb(80,50,7); fill-rule: nonzero; opacity: 1;"  transform=" translate(0, 0)" d="M 0 -12.34568 C 6.81481 -12.34568 12.34568 -6.81482 12.34568 0 C 12.34568 6.81481 6.81482 12.34568 0 12.34568 C -6.81481 12.34568 -12.34568 6.81482 -12.34568 0 C -12.34568 -6.81481 -6.81482 -12.34568 0 -12.34568 z" stroke-linecap="round" />
</g>
<g transform="matrix(0.3251416179 -0.2450117831 0.2450117831 0.3251416179 244.6329954187 379.3965626175)" id="LZFrN3FStXu_DUnniCAsM"  >
<path style="stroke: rgb(223,184,98); stroke-width: 0; stroke-dasharray: none; stroke-linecap: butt; stroke-dashoffset: 0; stroke-linejoin: miter; stroke-miterlimit: 4; fill: rgb(80,50,7); fill-rule: nonzero; opacity: 1;"  transform=" translate(0, 0)" d="M 0 -12.34568 C 6.81481 -12.34568 12.34568 -6.81482 12.34568 0 C 12.34568 6.81481 6.81482 12.34568 0 12.34568 C -6.81481 12.34568 -12.34568 6.81482 -12.34568 0 C -12.34568 -6.81481 -6.81482 -12.34568 0 -12.34568 z" stroke-linecap="round" />
</g>
<g transform="matrix(0.3901825425 -0.2940236352 0.2940236352 0.3901825425 187.519736415 356.0798147473)" id="hAMfegsXE7Os2GpPVJRqi"  >
<path style="stroke: rgb(223,184,98); stroke-width: 0; stroke-dasharray: none; stroke-linecap: butt; stroke-dashoffset: 0; stroke-linejoin: miter; stroke-miterlimit: 4; fill: rgb(80,50,7); fill-rule: nonzero; opacity: 1;"  transform=" translate(0, 0)" d="M 0 -12.34568 C 6.81481 -12.34568 12.34568 -6.81482 12.34568 0 C 12.34568 6.81481 6.81482 12.34568 0 12.34568 C -6.81481 12.34568 -12.34568 6.81482 -12.34568 0 C -12.34568 -6.81481 -6.81482 -12.34568 0 -12.34568 z" stroke-linecap="round" />
</g>
<g transform="matrix(0.5695810203 -0.4292100847 0.4292100847 0.5695810203 251.6080712264 360.4104277379)" id="OrRYc0DROwfhktMthKXOo"  >
<path style="stroke: rgb(223,184,98); stroke-width: 0; stroke-dasharray: none; stroke-linecap: butt; stroke-dashoffset: 0; stroke-linejoin: miter; stroke-miterlimit: 4; fill: rgb(80,50,7); fill-rule: nonzero; opacity: 1;"  transform=" translate(0, 0)" d="M 0 -12.34568 C 6.81481 -12.34568 12.34568 -6.81482 12.34568 0 C 12.34568 6.81481 6.81482 12.34568 0 12.34568 C -6.81481 12.34568 -12.34568 6.81482 -12.34568 0 C -12.34568 -6.81481 -6.81482 -12.34568 0 -12.34568 z" stroke-linecap="round" />
</g>
<g transform="matrix(0.3901825424 -0.2940236351 0.2940236351 0.3901825424 276.8783859807 348.9202907251)" id="2G8-TNlXc4zFHjTChm4IY"  >
<path style="stroke: rgb(223,184,98); stroke-width: 0; stroke-dasharray: none; stroke-linecap: butt; stroke-dashoffset: 0; stroke-linejoin: miter; stroke-miterlimit: 4; fill: rgb(80,50,7); fill-rule: nonzero; opacity: 1;"  transform=" translate(0, 0)" d="M 0 -12.34568 C 6.81481 -12.34568 12.34568 -6.81482 12.34568 0 C 12.34568 6.81481 6.81482 12.34568 0 12.34568 C -6.81481 12.34568 -12.34568 6.81482 -12.34568 0 C -12.34568 -6.81481 -6.81482 -12.34568 0 -12.34568 z" stroke-linecap="round" />
</g>
</svg>